<svg width="742" height="80" viewBox="0 0 742 80" fill="none" xmlns="http://www.w3.org/2000/svg">
<rect y="77" width="3" height="3" rx="1.5" fill="#D9D9D9" fill-opacity="0.28"/>
<rect x="18.454" y="77" width="3" height="3" rx="1.5" fill="#D9D9D9" fill-opacity="0.28"/>
<rect x="36.908" y="77" width="3" height="3" rx="1.5" fill="#D9D9D9" fill-opacity="0.28"/>
<rect x="55.3621" y="77" width="3" height="3" rx="1.5" fill="#D9D9D9" fill-opacity="0.28"/>
<rect x="73.8161" y="77" width="3" height="3" rx="1.5" fill="#D9D9D9" fill-opacity="0.28"/>
<rect x="92.2701" y="77" width="3" height="3" rx="1.5" fill="#D9D9D9" fill-opacity="0.28"/>
<rect x="110.724" y="77" width="3" height="3" rx="1.5" fill="#D9D9D9" fill-opacity="0.28"/>
<rect x="129.178" y="77" width="3" height="3" rx="1.5" fill="#D9D9D9" fill-opacity="0.28"/>
<rect x="147.632" y="77" width="3" height="3" rx="1.5" fill="#D9D9D9" fill-opacity="0.28"/>
<rect x="166.086" y="77" width="3" height="3" rx="1.5" fill="#D9D9D9" fill-opacity="0.28"/>
<rect x="184.54" y="77" width="3" height="3" rx="1.5" fill="#D9D9D9" fill-opacity="0.28"/>
<rect x="202.994" y="77" width="3" height="3" rx="1.5" fill="#D9D9D9" fill-opacity="0.28"/>
<rect x="221.448" y="77" width="3" height="3" rx="1.5" fill="#D9D9D9" fill-opacity="0.28"/>
<rect x="239.902" y="77" width="3" height="3" rx="1.5" fill="#D9D9D9" fill-opacity="0.28"/>
<rect x="258.356" y="77" width="3" height="3" rx="1.5" fill="#D9D9D9" fill-opacity="0.28"/>
<rect x="276.81" y="77" width="3" height="3" rx="1.5" fill="#D9D9D9" fill-opacity="0.28"/>
<rect x="295.264" y="77" width="3" height="3" rx="1.5" fill="#D9D9D9" fill-opacity="0.28"/>
<rect x="313.718" y="77" width="3" height="3" rx="1.5" fill="#D9D9D9" fill-opacity="0.28"/>
<rect x="332.172" y="77" width="3" height="3" rx="1.5" fill="#D9D9D9" fill-opacity="0.28"/>
<rect x="350.626" y="77" width="3" height="3" rx="1.5" fill="#D9D9D9" fill-opacity="0.28"/>
<rect x="369.08" y="77" width="3" height="3" rx="1.5" fill="#D9D9D9" fill-opacity="0.28"/>
<rect x="387.534" y="77" width="3" height="3" rx="1.5" fill="#D9D9D9" fill-opacity="0.28"/>
<rect x="405.988" y="77" width="3" height="3" rx="1.5" fill="#D9D9D9" fill-opacity="0.28"/>
<rect x="424.443" y="77" width="3" height="3" rx="1.5" fill="#D9D9D9" fill-opacity="0.28"/>
<rect x="442.897" y="77" width="3" height="3" rx="1.5" fill="#D9D9D9" fill-opacity="0.28"/>
<rect x="461.351" y="77" width="3" height="3" rx="1.5" fill="#D9D9D9" fill-opacity="0.28"/>
<rect x="479.805" y="77" width="3" height="3" rx="1.5" fill="#D9D9D9" fill-opacity="0.28"/>
<rect x="498.259" y="77" width="3" height="3" rx="1.5" fill="#D9D9D9" fill-opacity="0.28"/>
<rect x="516.713" y="77" width="3" height="3" rx="1.5" fill="#D9D9D9" fill-opacity="0.28"/>
<rect x="535.167" y="77" width="3" height="3" rx="1.5" fill="#D9D9D9" fill-opacity="0.28"/>
<rect x="553.621" y="77" width="3" height="3" rx="1.5" fill="#D9D9D9" fill-opacity="0.28"/>
<rect x="572.075" y="77" width="3" height="3" rx="1.5" fill="#D9D9D9" fill-opacity="0.28"/>
<rect x="590.529" y="77" width="3" height="3" rx="1.5" fill="#D9D9D9" fill-opacity="0.28"/>
<rect x="608.983" y="77" width="3" height="3" rx="1.5" fill="#D9D9D9" fill-opacity="0.28"/>
<rect x="627.437" y="77" width="3" height="3" rx="1.5" fill="#D9D9D9" fill-opacity="0.28"/>
<rect x="645.891" y="77" width="3" height="3" rx="1.5" fill="#D9D9D9" fill-opacity="0.28"/>
<rect x="664.345" y="77" width="3" height="3" rx="1.5" fill="#D9D9D9" fill-opacity="0.28"/>
<rect x="682.799" y="77" width="3" height="3" rx="1.5" fill="#D9D9D9" fill-opacity="0.28"/>
<rect x="701.253" y="77" width="3" height="3" rx="1.5" fill="#D9D9D9" fill-opacity="0.28"/>
<rect x="719.707" y="77" width="3" height="3" rx="1.5" fill="#D9D9D9" fill-opacity="0.28"/>
<rect x="738.161" y="77" width="3" height="3" rx="1.5" fill="#D9D9D9" fill-opacity="0.28"/>
<rect y="66" width="3" height="3" rx="1.5" fill="#D9D9D9" fill-opacity="0.28"/>
<rect x="18.454" y="66" width="3" height="3" rx="1.5" fill="#D9D9D9" fill-opacity="0.28"/>
<rect x="36.908" y="66" width="3" height="3" rx="1.5" fill="#D9D9D9" fill-opacity="0.28"/>
<rect x="55.3621" y="66" width="3" height="3" rx="1.5" fill="#D9D9D9" fill-opacity="0.28"/>
<rect x="73.8161" y="66" width="3" height="3" rx="1.5" fill="#D9D9D9" fill-opacity="0.28"/>
<rect x="92.2701" y="66" width="3" height="3" rx="1.5" fill="#D9D9D9" fill-opacity="0.28"/>
<rect x="110.724" y="66" width="3" height="3" rx="1.5" fill="#D9D9D9" fill-opacity="0.28"/>
<rect x="129.178" y="66" width="3" height="3" rx="1.5" fill="#D9D9D9" fill-opacity="0.28"/>
<rect x="147.632" y="66" width="3" height="3" rx="1.5" fill="#D9D9D9" fill-opacity="0.28"/>
<rect x="166.086" y="66" width="3" height="3" rx="1.5" fill="#D9D9D9" fill-opacity="0.28"/>
<rect x="184.54" y="66" width="3" height="3" rx="1.5" fill="#D9D9D9" fill-opacity="0.28"/>
<rect x="202.994" y="66" width="3" height="3" rx="1.5" fill="#D9D9D9" fill-opacity="0.28"/>
<rect x="221.448" y="66" width="3" height="3" rx="1.5" fill="#D9D9D9" fill-opacity="0.28"/>
<rect x="239.902" y="66" width="3" height="3" rx="1.5" fill="#D9D9D9" fill-opacity="0.28"/>
<rect x="258.356" y="66" width="3" height="3" rx="1.5" fill="#D9D9D9" fill-opacity="0.28"/>
<rect x="276.81" y="66" width="3" height="3" rx="1.5" fill="#D9D9D9" fill-opacity="0.28"/>
<rect x="295.264" y="66" width="3" height="3" rx="1.5" fill="#D9D9D9" fill-opacity="0.28"/>
<rect x="313.718" y="66" width="3" height="3" rx="1.5" fill="#D9D9D9" fill-opacity="0.28"/>
<rect x="332.172" y="66" width="3" height="3" rx="1.5" fill="#D9D9D9" fill-opacity="0.28"/>
<rect x="350.626" y="66" width="3" height="3" rx="1.5" fill="#D9D9D9" fill-opacity="0.28"/>
<rect x="369.08" y="66" width="3" height="3" rx="1.5" fill="#D9D9D9" fill-opacity="0.28"/>
<rect x="387.534" y="66" width="3" height="3" rx="1.5" fill="#D9D9D9" fill-opacity="0.28"/>
<rect x="405.988" y="66" width="3" height="3" rx="1.5" fill="#D9D9D9" fill-opacity="0.28"/>
<rect x="424.443" y="66" width="3" height="3" rx="1.5" fill="#D9D9D9" fill-opacity="0.28"/>
<rect x="442.897" y="66" width="3" height="3" rx="1.5" fill="#D9D9D9" fill-opacity="0.28"/>
<rect x="461.351" y="66" width="3" height="3" rx="1.5" fill="#D9D9D9" fill-opacity="0.28"/>
<rect x="479.805" y="66" width="3" height="3" rx="1.5" fill="#D9D9D9" fill-opacity="0.28"/>
<rect x="498.259" y="66" width="3" height="3" rx="1.5" fill="#D9D9D9" fill-opacity="0.28"/>
<rect x="516.713" y="66" width="3" height="3" rx="1.5" fill="#D9D9D9" fill-opacity="0.28"/>
<rect x="535.167" y="66" width="3" height="3" rx="1.5" fill="#D9D9D9" fill-opacity="0.28"/>
<rect x="553.621" y="66" width="3" height="3" rx="1.5" fill="#D9D9D9" fill-opacity="0.28"/>
<rect x="572.075" y="66" width="3" height="3" rx="1.5" fill="#D9D9D9" fill-opacity="0.28"/>
<rect x="590.529" y="66" width="3" height="3" rx="1.5" fill="#D9D9D9" fill-opacity="0.28"/>
<rect x="608.983" y="66" width="3" height="3" rx="1.5" fill="#D9D9D9" fill-opacity="0.28"/>
<rect x="627.437" y="66" width="3" height="3" rx="1.5" fill="#D9D9D9" fill-opacity="0.28"/>
<rect x="645.891" y="66" width="3" height="3" rx="1.5" fill="#D9D9D9" fill-opacity="0.28"/>
<rect x="664.345" y="66" width="3" height="3" rx="1.5" fill="#D9D9D9" fill-opacity="0.28"/>
<rect x="682.799" y="66" width="3" height="3" rx="1.5" fill="#D9D9D9" fill-opacity="0.28"/>
<rect x="701.253" y="66" width="3" height="3" rx="1.5" fill="#D9D9D9" fill-opacity="0.28"/>
<rect x="719.707" y="66" width="3" height="3" rx="1.5" fill="#D9D9D9" fill-opacity="0.28"/>
<rect x="738.161" y="66" width="3" height="3" rx="1.5" fill="#D9D9D9" fill-opacity="0.28"/>
<rect y="55" width="3" height="3" rx="1.5" fill="#D9D9D9" fill-opacity="0.28"/>
<rect x="18.454" y="55" width="3" height="3" rx="1.5" fill="#D9D9D9" fill-opacity="0.28"/>
<rect x="36.908" y="55" width="3" height="3" rx="1.5" fill="#D9D9D9" fill-opacity="0.28"/>
<rect x="55.3621" y="55" width="3" height="3" rx="1.5" fill="#D9D9D9" fill-opacity="0.28"/>
<rect x="73.8161" y="55" width="3" height="3" rx="1.5" fill="#D9D9D9" fill-opacity="0.28"/>
<rect x="92.2701" y="55" width="3" height="3" rx="1.5" fill="#D9D9D9" fill-opacity="0.28"/>
<rect x="110.724" y="55" width="3" height="3" rx="1.5" fill="#D9D9D9" fill-opacity="0.28"/>
<rect x="129.178" y="55" width="3" height="3" rx="1.5" fill="#D9D9D9" fill-opacity="0.28"/>
<rect x="147.632" y="55" width="3" height="3" rx="1.5" fill="#D9D9D9" fill-opacity="0.28"/>
<rect x="166.086" y="55" width="3" height="3" rx="1.5" fill="#D9D9D9" fill-opacity="0.28"/>
<rect x="184.54" y="55" width="3" height="3" rx="1.5" fill="#D9D9D9" fill-opacity="0.28"/>
<rect x="202.994" y="55" width="3" height="3" rx="1.5" fill="#D9D9D9" fill-opacity="0.28"/>
<rect x="221.448" y="55" width="3" height="3" rx="1.5" fill="#D9D9D9" fill-opacity="0.28"/>
<rect x="239.902" y="55" width="3" height="3" rx="1.5" fill="#D9D9D9" fill-opacity="0.28"/>
<rect x="258.356" y="55" width="3" height="3" rx="1.5" fill="#D9D9D9" fill-opacity="0.28"/>
<rect x="276.81" y="55" width="3" height="3" rx="1.5" fill="#D9D9D9" fill-opacity="0.28"/>
<rect x="295.264" y="55" width="3" height="3" rx="1.5" fill="#D9D9D9" fill-opacity="0.28"/>
<rect x="313.718" y="55" width="3" height="3" rx="1.5" fill="#D9D9D9" fill-opacity="0.28"/>
<rect x="332.172" y="55" width="3" height="3" rx="1.5" fill="#D9D9D9" fill-opacity="0.28"/>
<rect x="350.626" y="55" width="3" height="3" rx="1.5" fill="#D9D9D9" fill-opacity="0.28"/>
<rect x="369.08" y="55" width="3" height="3" rx="1.5" fill="#D9D9D9" fill-opacity="0.28"/>
<rect x="387.534" y="55" width="3" height="3" rx="1.5" fill="#D9D9D9" fill-opacity="0.28"/>
<rect x="405.988" y="55" width="3" height="3" rx="1.5" fill="#D9D9D9" fill-opacity="0.28"/>
<rect x="424.443" y="55" width="3" height="3" rx="1.5" fill="#D9D9D9" fill-opacity="0.28"/>
<rect x="442.897" y="55" width="3" height="3" rx="1.5" fill="#D9D9D9" fill-opacity="0.28"/>
<rect x="461.351" y="55" width="3" height="3" rx="1.5" fill="#D9D9D9" fill-opacity="0.28"/>
<rect x="479.805" y="55" width="3" height="3" rx="1.5" fill="#D9D9D9" fill-opacity="0.28"/>
<rect x="498.259" y="55" width="3" height="3" rx="1.5" fill="#D9D9D9" fill-opacity="0.28"/>
<rect x="516.713" y="55" width="3" height="3" rx="1.5" fill="#D9D9D9" fill-opacity="0.28"/>
<rect x="535.167" y="55" width="3" height="3" rx="1.5" fill="#D9D9D9" fill-opacity="0.28"/>
<rect x="553.621" y="55" width="3" height="3" rx="1.5" fill="#D9D9D9" fill-opacity="0.28"/>
<rect x="572.075" y="55" width="3" height="3" rx="1.5" fill="#D9D9D9" fill-opacity="0.28"/>
<rect x="590.529" y="55" width="3" height="3" rx="1.5" fill="#D9D9D9" fill-opacity="0.28"/>
<rect x="608.983" y="55" width="3" height="3" rx="1.5" fill="#D9D9D9" fill-opacity="0.28"/>
<rect x="627.437" y="55" width="3" height="3" rx="1.5" fill="#D9D9D9" fill-opacity="0.28"/>
<rect x="645.891" y="55" width="3" height="3" rx="1.5" fill="#D9D9D9" fill-opacity="0.28"/>
<rect x="664.345" y="55" width="3" height="3" rx="1.5" fill="#D9D9D9" fill-opacity="0.28"/>
<rect x="682.799" y="55" width="3" height="3" rx="1.5" fill="#D9D9D9" fill-opacity="0.28"/>
<rect x="701.253" y="55" width="3" height="3" rx="1.5" fill="#D9D9D9" fill-opacity="0.28"/>
<rect x="719.707" y="55" width="3" height="3" rx="1.5" fill="#D9D9D9" fill-opacity="0.28"/>
<rect x="738.161" y="55" width="3" height="3" rx="1.5" fill="#D9D9D9" fill-opacity="0.28"/>
<rect y="44" width="3" height="3" rx="1.5" fill="#D9D9D9" fill-opacity="0.28"/>
<rect x="18.454" y="44" width="3" height="3" rx="1.5" fill="#D9D9D9" fill-opacity="0.28"/>
<rect x="36.908" y="44" width="3" height="3" rx="1.5" fill="#D9D9D9" fill-opacity="0.28"/>
<rect x="55.3621" y="44" width="3" height="3" rx="1.5" fill="#D9D9D9" fill-opacity="0.28"/>
<rect x="73.8161" y="44" width="3" height="3" rx="1.5" fill="#D9D9D9" fill-opacity="0.28"/>
<rect x="92.2701" y="44" width="3" height="3" rx="1.5" fill="#D9D9D9" fill-opacity="0.28"/>
<rect x="110.724" y="44" width="3" height="3" rx="1.5" fill="#D9D9D9" fill-opacity="0.28"/>
<rect x="129.178" y="44" width="3" height="3" rx="1.5" fill="#D9D9D9" fill-opacity="0.28"/>
<rect x="147.632" y="44" width="3" height="3" rx="1.5" fill="#D9D9D9" fill-opacity="0.28"/>
<rect x="166.086" y="44" width="3" height="3" rx="1.5" fill="#D9D9D9" fill-opacity="0.28"/>
<rect x="184.54" y="44" width="3" height="3" rx="1.5" fill="#D9D9D9" fill-opacity="0.28"/>
<rect x="202.994" y="44" width="3" height="3" rx="1.5" fill="#D9D9D9" fill-opacity="0.28"/>
<rect x="221.448" y="44" width="3" height="3" rx="1.5" fill="#D9D9D9" fill-opacity="0.28"/>
<rect x="239.902" y="44" width="3" height="3" rx="1.5" fill="#D9D9D9" fill-opacity="0.28"/>
<rect x="258.356" y="44" width="3" height="3" rx="1.5" fill="#D9D9D9" fill-opacity="0.28"/>
<rect x="276.81" y="44" width="3" height="3" rx="1.5" fill="#D9D9D9" fill-opacity="0.28"/>
<rect x="295.264" y="44" width="3" height="3" rx="1.5" fill="#D9D9D9" fill-opacity="0.28"/>
<rect x="313.718" y="44" width="3" height="3" rx="1.5" fill="#D9D9D9" fill-opacity="0.28"/>
<rect x="332.172" y="44" width="3" height="3" rx="1.5" fill="#D9D9D9" fill-opacity="0.28"/>
<rect x="350.626" y="44" width="3" height="3" rx="1.5" fill="#D9D9D9" fill-opacity="0.28"/>
<rect x="369.08" y="44" width="3" height="3" rx="1.5" fill="#D9D9D9" fill-opacity="0.28"/>
<rect x="387.534" y="44" width="3" height="3" rx="1.5" fill="#D9D9D9" fill-opacity="0.28"/>
<rect x="405.988" y="44" width="3" height="3" rx="1.5" fill="#D9D9D9" fill-opacity="0.28"/>
<rect x="424.443" y="44" width="3" height="3" rx="1.5" fill="#D9D9D9" fill-opacity="0.28"/>
<rect x="442.897" y="44" width="3" height="3" rx="1.5" fill="#D9D9D9" fill-opacity="0.28"/>
<rect x="461.351" y="44" width="3" height="3" rx="1.5" fill="#D9D9D9" fill-opacity="0.28"/>
<rect x="479.805" y="44" width="3" height="3" rx="1.5" fill="#D9D9D9" fill-opacity="0.28"/>
<rect x="498.259" y="44" width="3" height="3" rx="1.5" fill="#D9D9D9" fill-opacity="0.28"/>
<rect x="516.713" y="44" width="3" height="3" rx="1.5" fill="#D9D9D9" fill-opacity="0.28"/>
<rect x="535.167" y="44" width="3" height="3" rx="1.5" fill="#D9D9D9" fill-opacity="0.28"/>
<rect x="553.621" y="44" width="3" height="3" rx="1.5" fill="#D9D9D9" fill-opacity="0.28"/>
<rect x="572.075" y="44" width="3" height="3" rx="1.5" fill="#D9D9D9" fill-opacity="0.28"/>
<rect x="590.529" y="44" width="3" height="3" rx="1.5" fill="#D9D9D9" fill-opacity="0.28"/>
<rect x="608.983" y="44" width="3" height="3" rx="1.5" fill="#D9D9D9" fill-opacity="0.28"/>
<rect x="627.437" y="44" width="3" height="3" rx="1.5" fill="#D9D9D9" fill-opacity="0.28"/>
<rect x="645.891" y="44" width="3" height="3" rx="1.5" fill="#D9D9D9" fill-opacity="0.28"/>
<rect x="664.345" y="44" width="3" height="3" rx="1.5" fill="#D9D9D9" fill-opacity="0.28"/>
<rect x="682.799" y="44" width="3" height="3" rx="1.5" fill="#D9D9D9" fill-opacity="0.28"/>
<rect x="701.253" y="44" width="3" height="3" rx="1.5" fill="#D9D9D9" fill-opacity="0.28"/>
<rect x="719.707" y="44" width="3" height="3" rx="1.5" fill="#D9D9D9" fill-opacity="0.28"/>
<rect x="738.161" y="44" width="3" height="3" rx="1.5" fill="#D9D9D9" fill-opacity="0.28"/>
<rect y="33" width="3" height="3" rx="1.5" fill="#D9D9D9" fill-opacity="0.28"/>
<rect x="18.454" y="33" width="3" height="3" rx="1.5" fill="#D9D9D9" fill-opacity="0.28"/>
<rect x="36.908" y="33" width="3" height="3" rx="1.5" fill="#D9D9D9" fill-opacity="0.28"/>
<rect x="55.3621" y="33" width="3" height="3" rx="1.5" fill="#D9D9D9" fill-opacity="0.28"/>
<rect x="73.8161" y="33" width="3" height="3" rx="1.5" fill="#D9D9D9" fill-opacity="0.28"/>
<rect x="92.2701" y="33" width="3" height="3" rx="1.5" fill="#D9D9D9" fill-opacity="0.28"/>
<rect x="110.724" y="33" width="3" height="3" rx="1.5" fill="#D9D9D9" fill-opacity="0.28"/>
<rect x="129.178" y="33" width="3" height="3" rx="1.5" fill="#D9D9D9" fill-opacity="0.28"/>
<rect x="147.632" y="33" width="3" height="3" rx="1.5" fill="#D9D9D9" fill-opacity="0.28"/>
<rect x="166.086" y="33" width="3" height="3" rx="1.5" fill="#D9D9D9" fill-opacity="0.28"/>
<rect x="184.54" y="33" width="3" height="3" rx="1.5" fill="#D9D9D9" fill-opacity="0.28"/>
<rect x="202.994" y="33" width="3" height="3" rx="1.5" fill="#D9D9D9" fill-opacity="0.28"/>
<rect x="221.448" y="33" width="3" height="3" rx="1.5" fill="#D9D9D9" fill-opacity="0.28"/>
<rect x="239.902" y="33" width="3" height="3" rx="1.5" fill="#D9D9D9" fill-opacity="0.28"/>
<rect x="258.356" y="33" width="3" height="3" rx="1.5" fill="#D9D9D9" fill-opacity="0.28"/>
<rect x="276.81" y="33" width="3" height="3" rx="1.5" fill="#D9D9D9" fill-opacity="0.28"/>
<rect x="295.264" y="33" width="3" height="3" rx="1.5" fill="#D9D9D9" fill-opacity="0.28"/>
<rect x="313.718" y="33" width="3" height="3" rx="1.5" fill="#D9D9D9" fill-opacity="0.28"/>
<rect x="332.172" y="33" width="3" height="3" rx="1.5" fill="#D9D9D9" fill-opacity="0.28"/>
<rect x="350.626" y="33" width="3" height="3" rx="1.5" fill="#D9D9D9" fill-opacity="0.28"/>
<rect x="369.08" y="33" width="3" height="3" rx="1.5" fill="#D9D9D9" fill-opacity="0.28"/>
<rect x="387.534" y="33" width="3" height="3" rx="1.5" fill="#D9D9D9" fill-opacity="0.28"/>
<rect x="405.988" y="33" width="3" height="3" rx="1.5" fill="#D9D9D9" fill-opacity="0.28"/>
<rect x="424.443" y="33" width="3" height="3" rx="1.5" fill="#D9D9D9" fill-opacity="0.28"/>
<rect x="442.897" y="33" width="3" height="3" rx="1.5" fill="#D9D9D9" fill-opacity="0.28"/>
<rect x="461.351" y="33" width="3" height="3" rx="1.5" fill="#D9D9D9" fill-opacity="0.28"/>
<rect x="479.805" y="33" width="3" height="3" rx="1.5" fill="#D9D9D9" fill-opacity="0.28"/>
<rect x="498.259" y="33" width="3" height="3" rx="1.5" fill="#D9D9D9" fill-opacity="0.28"/>
<rect x="516.713" y="33" width="3" height="3" rx="1.5" fill="#D9D9D9" fill-opacity="0.28"/>
<rect x="535.167" y="33" width="3" height="3" rx="1.5" fill="#D9D9D9" fill-opacity="0.28"/>
<rect x="553.621" y="33" width="3" height="3" rx="1.5" fill="#D9D9D9" fill-opacity="0.28"/>
<rect x="572.075" y="33" width="3" height="3" rx="1.5" fill="#D9D9D9" fill-opacity="0.28"/>
<rect x="590.529" y="33" width="3" height="3" rx="1.5" fill="#D9D9D9" fill-opacity="0.28"/>
<rect x="608.983" y="33" width="3" height="3" rx="1.5" fill="#D9D9D9" fill-opacity="0.28"/>
<rect x="627.437" y="33" width="3" height="3" rx="1.5" fill="#D9D9D9" fill-opacity="0.28"/>
<rect x="645.891" y="33" width="3" height="3" rx="1.5" fill="#D9D9D9" fill-opacity="0.28"/>
<rect x="664.345" y="33" width="3" height="3" rx="1.5" fill="#D9D9D9" fill-opacity="0.28"/>
<rect x="682.799" y="33" width="3" height="3" rx="1.5" fill="#D9D9D9" fill-opacity="0.28"/>
<rect x="701.253" y="33" width="3" height="3" rx="1.5" fill="#D9D9D9" fill-opacity="0.28"/>
<rect x="719.707" y="33" width="3" height="3" rx="1.5" fill="#D9D9D9" fill-opacity="0.28"/>
<rect x="738.161" y="33" width="3" height="3" rx="1.5" fill="#D9D9D9" fill-opacity="0.28"/>
<rect y="22" width="3" height="3" rx="1.5" fill="#D9D9D9" fill-opacity="0.28"/>
<rect x="18.454" y="22" width="3" height="3" rx="1.5" fill="#D9D9D9" fill-opacity="0.28"/>
<rect x="36.908" y="22" width="3" height="3" rx="1.5" fill="#D9D9D9" fill-opacity="0.28"/>
<rect x="55.3621" y="22" width="3" height="3" rx="1.5" fill="#D9D9D9" fill-opacity="0.28"/>
<rect x="73.8161" y="22" width="3" height="3" rx="1.5" fill="#D9D9D9" fill-opacity="0.28"/>
<rect x="92.2701" y="22" width="3" height="3" rx="1.5" fill="#D9D9D9" fill-opacity="0.28"/>
<rect x="110.724" y="22" width="3" height="3" rx="1.5" fill="#D9D9D9" fill-opacity="0.28"/>
<rect x="129.178" y="22" width="3" height="3" rx="1.5" fill="#D9D9D9" fill-opacity="0.28"/>
<rect x="147.632" y="22" width="3" height="3" rx="1.5" fill="#D9D9D9" fill-opacity="0.28"/>
<rect x="166.086" y="22" width="3" height="3" rx="1.5" fill="#D9D9D9" fill-opacity="0.28"/>
<rect x="184.54" y="22" width="3" height="3" rx="1.5" fill="#D9D9D9" fill-opacity="0.28"/>
<rect x="202.994" y="22" width="3" height="3" rx="1.5" fill="#D9D9D9" fill-opacity="0.28"/>
<rect x="221.448" y="22" width="3" height="3" rx="1.5" fill="#D9D9D9" fill-opacity="0.28"/>
<rect x="239.902" y="22" width="3" height="3" rx="1.5" fill="#D9D9D9" fill-opacity="0.28"/>
<rect x="258.356" y="22" width="3" height="3" rx="1.5" fill="#D9D9D9" fill-opacity="0.28"/>
<rect x="276.81" y="22" width="3" height="3" rx="1.5" fill="#D9D9D9" fill-opacity="0.28"/>
<rect x="295.264" y="22" width="3" height="3" rx="1.5" fill="#D9D9D9" fill-opacity="0.28"/>
<rect x="313.718" y="22" width="3" height="3" rx="1.5" fill="#D9D9D9" fill-opacity="0.28"/>
<rect x="332.172" y="22" width="3" height="3" rx="1.5" fill="#D9D9D9" fill-opacity="0.28"/>
<rect x="350.626" y="22" width="3" height="3" rx="1.5" fill="#D9D9D9" fill-opacity="0.28"/>
<rect x="369.08" y="22" width="3" height="3" rx="1.5" fill="#D9D9D9" fill-opacity="0.28"/>
<rect x="387.534" y="22" width="3" height="3" rx="1.5" fill="#D9D9D9" fill-opacity="0.28"/>
<rect x="405.988" y="22" width="3" height="3" rx="1.5" fill="#D9D9D9" fill-opacity="0.28"/>
<rect x="424.443" y="22" width="3" height="3" rx="1.5" fill="#D9D9D9" fill-opacity="0.28"/>
<rect x="442.897" y="22" width="3" height="3" rx="1.5" fill="#D9D9D9" fill-opacity="0.28"/>
<rect x="461.351" y="22" width="3" height="3" rx="1.5" fill="#D9D9D9" fill-opacity="0.28"/>
<rect x="479.805" y="22" width="3" height="3" rx="1.5" fill="#D9D9D9" fill-opacity="0.28"/>
<rect x="498.259" y="22" width="3" height="3" rx="1.5" fill="#D9D9D9" fill-opacity="0.28"/>
<rect x="516.713" y="22" width="3" height="3" rx="1.5" fill="#D9D9D9" fill-opacity="0.28"/>
<rect x="535.167" y="22" width="3" height="3" rx="1.5" fill="#D9D9D9" fill-opacity="0.28"/>
<rect x="553.621" y="22" width="3" height="3" rx="1.5" fill="#D9D9D9" fill-opacity="0.28"/>
<rect x="572.075" y="22" width="3" height="3" rx="1.5" fill="#D9D9D9" fill-opacity="0.28"/>
<rect x="590.529" y="22" width="3" height="3" rx="1.5" fill="#D9D9D9" fill-opacity="0.28"/>
<rect x="608.983" y="22" width="3" height="3" rx="1.5" fill="#D9D9D9" fill-opacity="0.28"/>
<rect x="627.437" y="22" width="3" height="3" rx="1.5" fill="#D9D9D9" fill-opacity="0.28"/>
<rect x="645.891" y="22" width="3" height="3" rx="1.5" fill="#D9D9D9" fill-opacity="0.28"/>
<rect x="664.345" y="22" width="3" height="3" rx="1.5" fill="#D9D9D9" fill-opacity="0.28"/>
<rect x="682.799" y="22" width="3" height="3" rx="1.5" fill="#D9D9D9" fill-opacity="0.28"/>
<rect x="701.253" y="22" width="3" height="3" rx="1.5" fill="#D9D9D9" fill-opacity="0.28"/>
<rect x="719.707" y="22" width="3" height="3" rx="1.5" fill="#D9D9D9" fill-opacity="0.28"/>
<rect x="738.161" y="22" width="3" height="3" rx="1.5" fill="#D9D9D9" fill-opacity="0.28"/>
<rect y="11" width="3" height="3" rx="1.5" fill="#D9D9D9" fill-opacity="0.28"/>
<rect x="18.454" y="11" width="3" height="3" rx="1.5" fill="#D9D9D9" fill-opacity="0.28"/>
<rect x="36.908" y="11" width="3" height="3" rx="1.5" fill="#D9D9D9" fill-opacity="0.28"/>
<rect x="55.3621" y="11" width="3" height="3" rx="1.5" fill="#D9D9D9" fill-opacity="0.28"/>
<rect x="73.8161" y="11" width="3" height="3" rx="1.5" fill="#D9D9D9" fill-opacity="0.28"/>
<rect x="92.2701" y="11" width="3" height="3" rx="1.5" fill="#D9D9D9" fill-opacity="0.28"/>
<rect x="110.724" y="11" width="3" height="3" rx="1.5" fill="#D9D9D9" fill-opacity="0.28"/>
<rect x="129.178" y="11" width="3" height="3" rx="1.5" fill="#D9D9D9" fill-opacity="0.28"/>
<rect x="147.632" y="11" width="3" height="3" rx="1.5" fill="#D9D9D9" fill-opacity="0.28"/>
<rect x="166.086" y="11" width="3" height="3" rx="1.5" fill="#D9D9D9" fill-opacity="0.28"/>
<rect x="184.54" y="11" width="3" height="3" rx="1.5" fill="#D9D9D9" fill-opacity="0.28"/>
<rect x="202.994" y="11" width="3" height="3" rx="1.5" fill="#D9D9D9" fill-opacity="0.28"/>
<rect x="221.448" y="11" width="3" height="3" rx="1.5" fill="#D9D9D9" fill-opacity="0.28"/>
<rect x="239.902" y="11" width="3" height="3" rx="1.5" fill="#D9D9D9" fill-opacity="0.28"/>
<rect x="258.356" y="11" width="3" height="3" rx="1.5" fill="#D9D9D9" fill-opacity="0.28"/>
<rect x="276.81" y="11" width="3" height="3" rx="1.5" fill="#D9D9D9" fill-opacity="0.28"/>
<rect x="295.264" y="11" width="3" height="3" rx="1.5" fill="#D9D9D9" fill-opacity="0.28"/>
<rect x="313.718" y="11" width="3" height="3" rx="1.5" fill="#D9D9D9" fill-opacity="0.28"/>
<rect x="332.172" y="11" width="3" height="3" rx="1.5" fill="#D9D9D9" fill-opacity="0.28"/>
<rect x="350.626" y="11" width="3" height="3" rx="1.5" fill="#D9D9D9" fill-opacity="0.28"/>
<rect x="369.08" y="11" width="3" height="3" rx="1.5" fill="#D9D9D9" fill-opacity="0.28"/>
<rect x="387.534" y="11" width="3" height="3" rx="1.5" fill="#D9D9D9" fill-opacity="0.28"/>
<rect x="405.988" y="11" width="3" height="3" rx="1.5" fill="#D9D9D9" fill-opacity="0.28"/>
<rect x="424.443" y="11" width="3" height="3" rx="1.5" fill="#D9D9D9" fill-opacity="0.28"/>
<rect x="442.897" y="11" width="3" height="3" rx="1.5" fill="#D9D9D9" fill-opacity="0.28"/>
<rect x="461.351" y="11" width="3" height="3" rx="1.5" fill="#D9D9D9" fill-opacity="0.28"/>
<rect x="479.805" y="11" width="3" height="3" rx="1.5" fill="#D9D9D9" fill-opacity="0.28"/>
<rect x="498.259" y="11" width="3" height="3" rx="1.5" fill="#D9D9D9" fill-opacity="0.28"/>
<rect x="516.713" y="11" width="3" height="3" rx="1.5" fill="#D9D9D9" fill-opacity="0.28"/>
<rect x="535.167" y="11" width="3" height="3" rx="1.5" fill="#D9D9D9" fill-opacity="0.28"/>
<rect x="553.621" y="11" width="3" height="3" rx="1.5" fill="#D9D9D9" fill-opacity="0.28"/>
<rect x="572.075" y="11" width="3" height="3" rx="1.5" fill="#D9D9D9" fill-opacity="0.28"/>
<rect x="590.529" y="11" width="3" height="3" rx="1.5" fill="#D9D9D9" fill-opacity="0.28"/>
<rect x="608.983" y="11" width="3" height="3" rx="1.5" fill="#D9D9D9" fill-opacity="0.28"/>
<rect x="627.437" y="11" width="3" height="3" rx="1.5" fill="#D9D9D9" fill-opacity="0.28"/>
<rect x="645.891" y="11" width="3" height="3" rx="1.5" fill="#D9D9D9" fill-opacity="0.28"/>
<rect x="664.345" y="11" width="3" height="3" rx="1.5" fill="#D9D9D9" fill-opacity="0.28"/>
<rect x="682.799" y="11" width="3" height="3" rx="1.5" fill="#D9D9D9" fill-opacity="0.28"/>
<rect x="701.253" y="11" width="3" height="3" rx="1.5" fill="#D9D9D9" fill-opacity="0.28"/>
<rect x="719.707" y="11" width="3" height="3" rx="1.5" fill="#D9D9D9" fill-opacity="0.28"/>
<rect x="738.161" y="11" width="3" height="3" rx="1.5" fill="#D9D9D9" fill-opacity="0.28"/>
<rect width="3" height="3" rx="1.5" fill="#D9D9D9" fill-opacity="0.28"/>
<rect x="18.454" width="3" height="3" rx="1.5" fill="#D9D9D9" fill-opacity="0.28"/>
<rect x="36.908" width="3" height="3" rx="1.5" fill="#D9D9D9" fill-opacity="0.28"/>
<rect x="55.3621" width="3" height="3" rx="1.5" fill="#D9D9D9" fill-opacity="0.28"/>
<rect x="73.8161" width="3" height="3" rx="1.5" fill="#D9D9D9" fill-opacity="0.28"/>
<rect x="92.2701" width="3" height="3" rx="1.5" fill="#D9D9D9" fill-opacity="0.28"/>
<rect x="110.724" width="3" height="3" rx="1.5" fill="#D9D9D9" fill-opacity="0.28"/>
<rect x="129.178" width="3" height="3" rx="1.5" fill="#D9D9D9" fill-opacity="0.28"/>
<rect x="147.632" width="3" height="3" rx="1.5" fill="#D9D9D9" fill-opacity="0.28"/>
<rect x="166.086" width="3" height="3" rx="1.5" fill="#D9D9D9" fill-opacity="0.28"/>
<rect x="184.54" width="3" height="3" rx="1.5" fill="#D9D9D9" fill-opacity="0.28"/>
<rect x="202.994" width="3" height="3" rx="1.5" fill="#D9D9D9" fill-opacity="0.28"/>
<rect x="221.448" width="3" height="3" rx="1.5" fill="#D9D9D9" fill-opacity="0.28"/>
<rect x="239.902" width="3" height="3" rx="1.5" fill="#D9D9D9" fill-opacity="0.28"/>
<rect x="258.356" width="3" height="3" rx="1.5" fill="#D9D9D9" fill-opacity="0.28"/>
<rect x="276.81" width="3" height="3" rx="1.5" fill="#D9D9D9" fill-opacity="0.28"/>
<rect x="295.264" width="3" height="3" rx="1.5" fill="#D9D9D9" fill-opacity="0.28"/>
<rect x="313.718" width="3" height="3" rx="1.5" fill="#D9D9D9" fill-opacity="0.28"/>
<rect x="332.172" width="3" height="3" rx="1.5" fill="#D9D9D9" fill-opacity="0.28"/>
<rect x="350.626" width="3" height="3" rx="1.5" fill="#D9D9D9" fill-opacity="0.28"/>
<rect x="369.08" width="3" height="3" rx="1.5" fill="#D9D9D9" fill-opacity="0.28"/>
<rect x="387.534" width="3" height="3" rx="1.5" fill="#D9D9D9" fill-opacity="0.28"/>
<rect x="405.988" width="3" height="3" rx="1.5" fill="#D9D9D9" fill-opacity="0.28"/>
<rect x="424.443" width="3" height="3" rx="1.5" fill="#D9D9D9" fill-opacity="0.28"/>
<rect x="442.897" width="3" height="3" rx="1.5" fill="#D9D9D9" fill-opacity="0.28"/>
<rect x="461.351" width="3" height="3" rx="1.5" fill="#D9D9D9" fill-opacity="0.28"/>
<rect x="479.805" width="3" height="3" rx="1.5" fill="#D9D9D9" fill-opacity="0.28"/>
<rect x="498.259" width="3" height="3" rx="1.5" fill="#D9D9D9" fill-opacity="0.28"/>
<rect x="516.713" width="3" height="3" rx="1.5" fill="#D9D9D9" fill-opacity="0.28"/>
<rect x="535.167" width="3" height="3" rx="1.5" fill="#D9D9D9" fill-opacity="0.28"/>
<rect x="553.621" width="3" height="3" rx="1.5" fill="#D9D9D9" fill-opacity="0.28"/>
<rect x="572.075" width="3" height="3" rx="1.5" fill="#D9D9D9" fill-opacity="0.28"/>
<rect x="590.529" width="3" height="3" rx="1.5" fill="#D9D9D9" fill-opacity="0.28"/>
<rect x="608.983" width="3" height="3" rx="1.5" fill="#D9D9D9" fill-opacity="0.28"/>
<rect x="627.437" width="3" height="3" rx="1.5" fill="#D9D9D9" fill-opacity="0.28"/>
<rect x="645.891" width="3" height="3" rx="1.5" fill="#D9D9D9" fill-opacity="0.28"/>
<rect x="664.345" width="3" height="3" rx="1.5" fill="#D9D9D9" fill-opacity="0.28"/>
<rect x="682.799" width="3" height="3" rx="1.5" fill="#D9D9D9" fill-opacity="0.28"/>
<rect x="701.253" width="3" height="3" rx="1.5" fill="#D9D9D9" fill-opacity="0.28"/>
<rect x="719.707" width="3" height="3" rx="1.5" fill="#D9D9D9" fill-opacity="0.28"/>
<rect x="738.161" width="3" height="3" rx="1.5" fill="#D9D9D9" fill-opacity="0.28"/>
<rect x="738.161" width="3" height="3" rx="1.5" fill="#D9D9D9" fill-opacity="0.28"/>
</svg>
