<svg width="9" height="10" viewBox="0 0 9 10" fill="none" xmlns="http://www.w3.org/2000/svg">
<g clip-path="url(#clip0_220_1510)">
<path d="M5.93709 2.11203C5.2384 1.41521 4.57408 0.749023 4.37604 0C4.18156 0.749023 3.51178 1.41521 2.81316 2.11203C1.76705 3.1582 0.580508 4.34289 0.580508 6.1218C0.534863 8.2175 2.19676 9.95344 4.29248 9.99908C6.3882 10.0447 8.1241 8.38281 8.16975 6.28711C8.17093 6.23202 8.17093 6.17691 8.16975 6.1218C8.16975 4.34289 6.9832 3.1582 5.93709 2.11203ZM2.53229 6.4675C2.41628 6.61339 2.31665 6.77159 2.2352 6.93924C2.22914 6.95253 2.22017 6.9643 2.20895 6.97365C2.19773 6.983 2.18454 6.98971 2.17037 6.99326H2.13797C2.05334 6.99326 1.95791 6.82762 1.95791 6.82762C1.93271 6.78801 1.9093 6.74658 1.8859 6.70338L1.86969 6.66916C1.65002 6.16682 1.84088 5.45201 1.84088 5.45201C1.93496 5.10363 2.08846 4.7741 2.29461 4.47793C2.42058 4.28985 2.55769 4.10947 2.7052 3.93775L2.88525 4.11781L3.7351 4.98566C3.75104 5.00349 3.75986 5.02657 3.75986 5.05049C3.75986 5.07441 3.75104 5.09748 3.7351 5.11531L2.84738 6.10019L2.53229 6.4675ZM4.41924 8.95404C4.1667 8.95261 3.91993 8.87834 3.70854 8.74016C3.49715 8.60197 3.33012 8.40574 3.22748 8.17499C3.12484 7.94424 3.09095 7.68878 3.12988 7.43925C3.16881 7.18972 3.2789 6.95672 3.44695 6.7682C3.7243 6.43869 4.06273 6.11461 4.43004 5.68787C4.86576 6.15242 5.15025 6.47107 5.42934 6.82041C5.4512 6.84735 5.47049 6.87629 5.48695 6.90684C5.63961 7.12405 5.72136 7.38316 5.72102 7.64865C5.72149 7.8196 5.68829 7.98898 5.62331 8.1471C5.55833 8.30522 5.46284 8.44899 5.34229 8.57021C5.22174 8.69142 5.0785 8.78771 4.92075 8.85357C4.76299 8.91943 4.5938 8.95357 4.42285 8.95404H4.41924ZM6.88236 6.86719C6.87399 6.89411 6.85826 6.91815 6.83694 6.93661C6.81563 6.95506 6.78958 6.96719 6.76174 6.97162H6.73645C6.6848 6.95488 6.64118 6.9196 6.614 6.8726C6.38649 6.53131 6.12856 6.21131 5.84338 5.9165L5.49596 5.55645L4.34191 4.35908C4.09954 4.13451 3.86877 3.89773 3.65051 3.64967C3.64513 3.64027 3.63912 3.63125 3.6325 3.62268C3.59325 3.56748 3.56232 3.50681 3.5407 3.44262V3.4084C3.52472 3.31051 3.53275 3.21021 3.56411 3.11612C3.59547 3.02202 3.64922 2.93696 3.72074 2.86824C3.94402 2.64498 4.16908 2.41992 4.38154 2.18584C4.61561 2.44512 4.86592 2.69365 5.11256 2.94027C5.61578 3.40891 6.07115 3.92643 6.47193 4.4852C6.81032 4.96433 6.99438 5.53535 6.99949 6.12191C6.99662 6.37469 6.95717 6.62572 6.88236 6.86719Z" fill="white"/>
</g>
<defs>
<clipPath id="clip0_220_1510">
<rect width="8.75" height="10" rx="3" fill="white"/>
</clipPath>
</defs>
</svg>
