<svg width="10" height="10" viewBox="0 0 10 10" fill="none" xmlns="http://www.w3.org/2000/svg">
<path d="M2.5 1.25C2.16848 1.25 1.85054 1.3817 1.61612 1.61612C1.3817 1.85054 1.25 2.16848 1.25 2.5V7.5C1.25 7.83152 1.3817 8.14946 1.61612 8.38388C1.85054 8.6183 2.16848 8.75 2.5 8.75H7.5C7.83152 8.75 8.14946 8.6183 8.38388 8.38388C8.6183 8.14946 8.75 7.83152 8.75 7.5V2.5C8.75 2.16848 8.6183 1.85054 8.38388 1.61612C8.14946 1.3817 7.83152 1.25 7.5 1.25H2.5ZM5.55583 6.68958C5.85583 6.93125 6.155 7.05 6.45417 7.04708C6.6375 7.04708 6.77833 7.01375 6.87583 6.94625C6.92136 6.9167 6.9584 6.8758 6.98331 6.82758C7.00823 6.77936 7.02015 6.72548 7.01792 6.67125C7.01852 6.6121 7.00615 6.55354 6.98167 6.49969C6.9572 6.44585 6.92121 6.39802 6.87625 6.35958C6.77833 6.27417 6.59333 6.18875 6.32125 6.10292C5.99458 6.00833 5.74208 5.88625 5.565 5.73625C5.39083 5.58625 5.3025 5.37708 5.29917 5.10833C5.29917 4.85458 5.40917 4.6425 5.62917 4.47125C5.84333 4.30042 6.11667 4.21458 6.45 4.21458C6.91417 4.21458 7.28708 4.3275 7.56792 4.55375L7.24708 5.05333C7.13157 4.96348 6.99904 4.898 6.8575 4.86083C6.7303 4.81829 6.59743 4.79511 6.46333 4.79208C6.305 4.79208 6.17792 4.82125 6.08292 4.87917C5.98833 4.9375 5.94125 5.01375 5.94125 5.10833C5.94125 5.2125 5.99917 5.30083 6.115 5.37417C6.23167 5.44458 6.43 5.5225 6.71083 5.60792C7.05 5.70875 7.29167 5.84333 7.435 6.01125C7.57875 6.17917 7.65042 6.39333 7.65042 6.65292C7.65042 6.91875 7.54833 7.14792 7.34333 7.34042C7.14167 7.53 6.84833 7.62917 6.46333 7.63833C5.95917 7.63833 5.5375 7.48708 5.19833 7.18458L5.55583 6.68958ZM3.25167 6.95542C3.34958 7.01667 3.46708 7.04708 3.60458 7.04708C3.74833 7.04708 3.86708 7.00583 3.96208 6.92333C4.05667 6.83792 4.10417 6.68958 4.10417 6.47875V4.26958H4.72292V6.59792C4.71375 6.95833 4.61 7.21833 4.41125 7.37708C4.30281 7.4693 4.17638 7.53797 4.04 7.57875C3.91368 7.61724 3.78247 7.63731 3.65042 7.63833C3.42125 7.63833 3.21792 7.59875 3.04083 7.51917C2.85125 7.43375 2.6925 7.2825 2.56417 7.06542L2.995 6.7125C3.07417 6.81958 3.16 6.90042 3.25167 6.95542Z" fill="white"/>
</svg>
