<svg width="631" height="3" viewBox="0 0 631 3" fill="none" xmlns="http://www.w3.org/2000/svg">
<rect width="5" height="5" rx="1.5" fill="#D9D9D9" fill-opacity="0.28"/>
<rect x="18.454" width="5" height="5" rx="1.5" fill="#D9D9D9" fill-opacity="0.28"/>
<rect x="36.908" width="5" height="5" rx="1.5" fill="#D9D9D9" fill-opacity="0.28"/>
<rect x="55.3621" width="5" height="5" rx="1.5" fill="#D9D9D9" fill-opacity="0.28"/>
<rect x="73.8161" width="5" height="5" rx="1.5" fill="#D9D9D9" fill-opacity="0.28"/>
<rect x="92.2701" width="5" height="5" rx="1.5" fill="#D9D9D9" fill-opacity="0.28"/>
<rect x="110.724" width="5" height="5" rx="1.5" fill="#D9D9D9" fill-opacity="0.28"/>
<rect x="129.178" width="5" height="5" rx="1.5" fill="#D9D9D9" fill-opacity="0.28"/>
<rect x="147.632" width="5" height="5" rx="1.5" fill="#D9D9D9" fill-opacity="0.28"/>
<rect x="166.086" width="5" height="5" rx="1.5" fill="#D9D9D9" fill-opacity="0.28"/>
<rect x="184.54" width="5" height="5" rx="1.5" fill="#D9D9D9" fill-opacity="0.28"/>
<rect x="202.994" width="5" height="5" rx="1.5" fill="#D9D9D9" fill-opacity="0.28"/>
<rect x="221.448" width="5" height="5" rx="1.5" fill="#D9D9D9" fill-opacity="0.28"/>
<rect x="239.902" width="5" height="5" rx="1.5" fill="#D9D9D9" fill-opacity="0.28"/>
<rect x="258.356" width="5" height="5" rx="1.5" fill="#D9D9D9" fill-opacity="0.28"/>
<rect x="276.81" width="5" height="5" rx="1.5" fill="#D9D9D9" fill-opacity="0.28"/>
<rect x="295.264" width="5" height="5" rx="1.5" fill="#D9D9D9" fill-opacity="0.28"/>
<rect x="313.718" width="5" height="5" rx="1.5" fill="#D9D9D9" fill-opacity="0.28"/>
<rect x="332.172" width="5" height="5" rx="1.5" fill="#D9D9D9" fill-opacity="0.28"/>
<rect x="350.626" width="5" height="5" rx="1.5" fill="#D9D9D9" fill-opacity="0.28"/>
<rect x="369.08" width="5" height="5" rx="1.5" fill="#D9D9D9" fill-opacity="0.28"/>
<rect x="387.534" width="5" height="5" rx="1.5" fill="#D9D9D9" fill-opacity="0.28"/>
<rect x="405.988" width="5" height="5" rx="1.5" fill="#D9D9D9" fill-opacity="0.28"/>
<rect x="424.443" width="5" height="5" rx="1.5" fill="#D9D9D9" fill-opacity="0.28"/>
<rect x="442.897" width="5" height="5" rx="1.5" fill="#D9D9D9" fill-opacity="0.28"/>
<rect x="461.351" width="5" height="5" rx="1.5" fill="#D9D9D9" fill-opacity="0.28"/>
<rect x="479.805" width="5" height="5" rx="1.5" fill="#D9D9D9" fill-opacity="0.28"/>
<rect x="498.259" width="5" height="5" rx="1.5" fill="#D9D9D9" fill-opacity="0.28"/>
<rect x="516.713" width="5" height="5" rx="1.5" fill="#D9D9D9" fill-opacity="0.28"/>
<rect x="535.167" width="5" height="5" rx="1.5" fill="#D9D9D9" fill-opacity="0.28"/>
<rect x="553.621" width="5" height="5" rx="1.5" fill="#D9D9D9" fill-opacity="0.28"/>
<rect x="572.075" width="5" height="5" rx="1.5" fill="#D9D9D9" fill-opacity="0.28"/>
<rect x="590.529" width="5" height="5" rx="1.5" fill="#D9D9D9" fill-opacity="0.28"/>
<rect x="608.983" width="5" height="5" rx="1.5" fill="#D9D9D9" fill-opacity="0.28"/>
<rect x="627.437" width="5" height="5" rx="1.5" fill="#42226D"/>
</svg>
