<?xml version="1.0" encoding="UTF-8"?>
<svg fill="#fff" data-name="Layer 1" viewBox="0 0 128 128" xmlns="http://www.w3.org/2000/svg">
<path class="cls-1" d="m68.85,20.79h-32.05c-8.84,0-16,7.17-16,16v23.52h37.23c.5-14.45,7.59-25.39,13.76-33.41,1.91-2.49.2-6.11-2.94-6.11Zm15.53,79.45c-7.88-6.25-19.24-19.68-19.24-38,0-17.03,8.73-27.89,15.61-36.46.82-1.02,1.61-2.01,2.36-2.97,1.97-2.52,6.97-2.47,8.92.07.73.97,1.52,1.96,2.34,2.98.86,1.09,2.11,2.65,3.02,3.82,6.34,8.16,13.15,18.46,13.15,32.56,0,17.65-11.17,31.09-19.22,37.64v6.1c0,1.92-1.56,3.47-3.47,3.47s-3.47-1.55-3.47-3.47v-5.74Zm3.47-48.71c1.91,0,3.47,1.55,3.47,3.47v31.61c0,1.91-1.56,3.46-3.47,3.46s-3.47-1.55-3.47-3.46v-31.61c0-1.92,1.55-3.47,3.47-3.47ZM20.8,91.19v-23.95h37.23c1.33,13.72,8.47,24.75,15.19,32.23,2.42,2.69.59,7.72-3.02,7.72h-33.4c-8.84,0-16-7.16-16-16Z" data-name="Vector 1600"/>
</svg>