<svg width="10" height="10" viewBox="0 0 10 10" fill="none" xmlns="http://www.w3.org/2000/svg">
<g clip-path="url(#clip0_220_1529)">
<path fill-rule="evenodd" clip-rule="evenodd" d="M1.43912e-07 5.00009C3.22078e-05 4.13731 0.22332 3.28922 0.648151 2.53828C1.07298 1.78735 1.6849 1.15912 2.4244 0.714683C3.16391 0.270249 4.00583 0.0247332 4.86831 0.00200951C5.73079 -0.0207142 6.58448 0.180127 7.34636 0.585004C8.10824 0.989882 8.75239 1.58502 9.21617 2.31254C9.67995 3.04007 9.94759 3.87522 9.99305 4.7368C10.0385 5.59838 9.86026 6.45707 9.47562 7.22936C9.09098 8.00166 8.51304 8.66128 7.798 9.14409L3.27133 2.80676C3.23032 2.74928 3.17211 2.70631 3.1051 2.68405C3.03809 2.66178 2.96574 2.66137 2.89848 2.68288C2.83123 2.70438 2.77254 2.74669 2.73087 2.8037C2.68921 2.86071 2.66673 2.92948 2.66667 3.00009V8.00009H3.33333V4.04009L7.22 9.48142C6.4576 9.85921 5.61141 10.0362 4.76151 9.9956C3.91162 9.95501 3.08614 9.69821 2.36321 9.2495C1.64027 8.80079 1.04381 8.17501 0.630271 7.43141C0.216731 6.6878 -0.000203975 5.85095 1.43912e-07 5.00009ZM6.66667 6.66676V2.66676H7.33333V6.66676H6.66667Z" fill="white"/>
</g>
<defs>
<clipPath id="clip0_220_1529">
<rect width="10" height="10" fill="white"/>
</clipPath>
</defs>
</svg>
