<svg width="10" height="10" viewBox="0 0 10 10" fill="none" xmlns="http://www.w3.org/2000/svg">
<path d="M5 0.770844C4.8875 0.770844 4.77083 0.80001 4.675 0.854177L1.575 2.64584C1.375 2.76251 1.25 2.97918 1.25 3.21251V6.78751C1.25 7.02084 1.375 7.23751 1.575 7.35418L2.3875 7.82084C2.78333 8.01251 2.91667 8.01668 3.1 8.01668C3.68333 8.01668 4.02083 7.66251 4.02083 7.04584V3.51668C4.02083 3.46668 3.97917 3.42501 3.92917 3.42501H3.54167C3.4875 3.42501 3.44583 3.46668 3.44583 3.51668V7.04584C3.44583 7.32084 3.1625 7.59168 2.70833 7.36251L1.85417 6.87501C1.84014 6.8651 1.82867 6.852 1.8207 6.83679C1.81273 6.82157 1.80849 6.80468 1.80833 6.78751V3.21251C1.80833 3.17501 1.825 3.14168 1.85417 3.12501L4.95417 1.33751C4.97917 1.32084 5.02083 1.32084 5.04583 1.33751L8.14583 3.12501C8.175 3.14168 8.19167 3.17501 8.19167 3.21251V6.78751C8.19167 6.82084 8.175 6.85418 8.14583 6.87501L5.04583 8.66251C5.02083 8.67918 4.97917 8.67918 4.95 8.66251L4.16667 8.18751C4.13333 8.17501 4.1 8.17084 4.07917 8.18334C3.85833 8.30834 3.81667 8.33334 3.6125 8.39584C3.5625 8.41251 3.48333 8.44168 3.64167 8.52918L4.675 9.14168C4.775 9.20001 4.88333 9.22918 5 9.22918C5.11667 9.22918 5.225 9.20001 5.325 9.14168L8.425 7.35418C8.625 7.23751 8.75 7.02084 8.75 6.78751V3.21251C8.75 2.97918 8.625 2.76251 8.425 2.64584L5.325 0.854177C5.22917 0.80001 5.11667 0.770844 5 0.770844ZM5.83333 3.33334C4.95 3.33334 4.42083 3.70418 4.42083 4.32918C4.42083 5.00001 4.94583 5.19584 5.79583 5.27918C6.80833 5.37918 6.8875 5.52918 6.8875 5.72918C6.8875 6.07501 6.60833 6.22084 5.95833 6.22084C5.13333 6.22084 4.95833 6.01668 4.89583 5.60834C4.89145 5.58724 4.87995 5.56828 4.86327 5.55463C4.84658 5.54098 4.82572 5.53346 4.80417 5.53334H4.40417C4.35417 5.53334 4.31667 5.57084 4.31667 5.62501C4.31667 6.14168 4.6 6.76668 5.95833 6.76668C6.9375 6.76668 7.5 6.37918 7.5 5.70418C7.5 5.03334 7.05 4.85834 6.09583 4.72918C5.13333 4.60418 5.0375 4.53751 5.0375 4.31251C5.0375 4.12501 5.12083 3.87501 5.83333 3.87501C6.45833 3.87501 6.70417 4.01251 6.8 4.44168C6.80833 4.48334 6.84583 4.51251 6.8875 4.51251H7.29167C7.3125 4.51251 7.3375 4.50418 7.35417 4.48334C7.37083 4.46668 7.38333 4.44168 7.375 4.41668C7.31667 3.67501 6.825 3.33334 5.83333 3.33334Z" fill="white"/>
</svg>
