<svg width="10" height="10" viewBox="0 0 10 10" fill="none" xmlns="http://www.w3.org/2000/svg">
<g clip-path="url(#clip0_226_6)">
<path d="M4.99846 5.74792C5.49137 5.74792 5.89096 5.34834 5.89096 4.85542C5.89096 4.36251 5.49137 3.96292 4.99846 3.96292C4.50554 3.96292 4.10596 4.36251 4.10596 4.85542C4.10596 5.34834 4.50554 5.74792 4.99846 5.74792Z" fill="white"/>
<path d="M4.99833 3.25416C6.15167 3.25416 7.24708 3.41666 8.08 3.70332C9.005 4.02166 9.56958 4.49249 9.56958 4.85541C9.56958 5.24166 8.96 5.74332 7.97042 6.07124C7.18292 6.33207 6.12875 6.47457 4.99833 6.47457C3.81083 6.47457 2.74458 6.33499 1.96625 6.06874C1.47875 5.90207 1.07625 5.68541 0.8 5.44957C0.552083 5.23707 0.427083 5.02624 0.427083 4.85541C0.427083 4.49124 0.969583 4.02707 1.875 3.71124C2.70833 3.42082 3.83042 3.25416 4.99833 3.25416ZM4.99833 2.82666C3.785 2.82666 2.61583 3.00082 1.73417 3.30832C0.675833 3.67707 0 4.25541 0 4.85541C0 5.47457 0.725417 6.09624 1.82792 6.47291C2.65667 6.75624 3.76708 6.90166 4.99833 6.90166C6.17167 6.90166 7.26958 6.75332 8.105 6.47666C9.25083 6.09666 9.99667 5.48291 9.99667 4.85541C9.99667 4.25332 9.29875 3.67124 8.21917 3.29916C7.33875 2.99624 6.19667 2.82666 4.99833 2.82666ZM3.60333 4.05999C4.17958 3.06041 4.8675 2.19291 5.5325 1.61416C6.27 0.972491 6.96 0.718324 7.27417 0.899991C7.60875 1.09291 7.73917 1.87124 7.52875 2.89249C7.36125 3.70499 6.95792 4.68916 6.39333 5.66874C5.8 6.69749 5.14667 7.55124 4.52667 8.09249C4.13917 8.43166 3.75042 8.67207 3.40792 8.79332C3.10042 8.90166 2.855 8.90499 2.70708 8.81957C2.39167 8.63791 2.26042 7.93582 2.43917 6.99416C2.60375 6.12707 3.02 5.07124 3.60333 4.05957M3.23333 3.84624C2.62708 4.89707 2.19375 5.99707 2.01958 6.91416C1.81083 8.01541 1.97375 8.88999 2.49333 9.18916C3.03042 9.49916 3.93083 9.18082 4.80792 8.41416C5.4675 7.83791 6.14833 6.94832 6.76333 5.88207C7.34917 4.86541 7.76958 3.84041 7.94667 2.97832C8.19042 1.79624 8.03125 0.843324 7.4875 0.529991C6.96583 0.229157 6.11333 0.542491 5.25167 1.29249C4.55 1.90332 3.83208 2.80832 3.23333 3.84624ZM3.60458 5.67041C3.02667 4.67291 2.61875 3.64332 2.44958 2.77916C2.26167 1.81874 2.38625 1.09457 2.70042 0.912907C3.03458 0.719157 3.77417 0.995407 4.55375 1.68749C5.17458 2.23832 5.82542 3.07916 6.39167 4.05791C6.98708 5.08582 7.4 6.07791 7.56 6.88499C7.66 7.39041 7.67417 7.84749 7.60792 8.20457C7.54833 8.52541 7.42875 8.73957 7.28083 8.82541C6.96583 9.00749 6.29208 8.77041 5.56542 8.14499C4.89667 7.56999 4.18958 6.68207 3.60458 5.67124M3.235 5.88541C3.84292 6.93541 4.57917 7.86041 5.28708 8.46874C6.13667 9.19999 6.97542 9.49499 7.49458 9.19457C8.03083 8.88416 8.205 7.94499 7.97875 6.80207C7.80875 5.94332 7.37833 4.90916 6.76125 3.84374C6.17375 2.82832 5.495 1.95207 4.83708 1.36791C3.93458 0.566657 3.02958 0.228324 2.48625 0.542907C1.96542 0.844574 1.81125 1.73999 2.03042 2.86082C2.20917 3.77457 2.63458 4.84791 3.235 5.88499" fill="white"/>
</g>
<defs>
<clipPath id="clip0_226_6">
<rect width="10" height="10" fill="white"/>
</clipPath>
</defs>
</svg>
