<svg width="10" height="10" viewBox="0 0 10 10" fill="none" xmlns="http://www.w3.org/2000/svg">
<g clip-path="url(#clip0_220_1522)">
<path d="M1.42918 1.70718C1.51106 1.83218 2.21043 1.20468 2.82106 1.34436C3.46512 1.49186 4.07543 2.50811 4.33606 5.62561C4.72823 5.97805 5.09782 6.35484 5.44262 6.75374C5.55304 6.88165 5.65856 7.00874 5.75918 7.13499C5.77428 6.98786 5.79817 6.84176 5.83075 6.69749C5.94429 6.20278 6.15469 5.73545 6.44981 5.32249C6.35059 4.29647 5.98805 3.31347 5.39731 2.46874C5.07543 2.01718 3.95981 0.444363 2.72668 0.6428C1.93168 0.7703 1.34356 1.57936 1.42918 1.70718Z" fill="white"/>
<path d="M7.62523 9.37501C7.54178 8.70604 7.48964 8.03353 7.46898 7.35969C7.4396 6.34969 7.50023 5.94063 7.75023 5.56094C7.81054 5.46876 8.15273 4.94376 8.55648 4.97876C9.0146 5.01876 9.24804 5.73313 9.2946 5.70907C9.34929 5.68094 9.1821 4.60188 8.50335 4.32438C7.69085 3.99219 6.53085 4.97126 6.06585 5.93501C5.9416 6.21588 5.85168 6.51072 5.79804 6.81313C5.61597 7.65447 5.54141 8.51552 5.57616 9.37563L7.62523 9.37501Z" fill="white"/>
<path d="M0.69949 4.3547C0.744802 4.21501 1.47074 4.27376 2.11824 4.44626C2.89949 4.65438 4.30574 5.17876 5.75918 7.13563C6.17272 7.80696 6.3742 8.5874 6.3373 9.37501H3.24574C3.27856 8.89318 3.26023 8.40923 3.19105 7.93126C3.13171 7.13192 2.86702 6.36144 2.42261 5.69438C1.70043 4.7372 0.642302 4.53126 0.69949 4.3547Z" fill="white"/>
<path d="M5.40617 6.66345C5.40611 6.79018 5.3621 6.91298 5.28166 7.0109C5.20121 7.10883 5.08929 7.17584 4.96498 7.20051C4.84067 7.22517 4.71165 7.20597 4.59991 7.14618C4.48816 7.08639 4.40061 6.9897 4.35216 6.87259C4.30371 6.75548 4.29736 6.6252 4.3342 6.50393C4.37104 6.38267 4.44879 6.27793 4.55419 6.20756C4.6596 6.13719 4.78614 6.10555 4.91226 6.11802C5.03838 6.13048 5.15628 6.1863 5.24586 6.27595C5.29679 6.32679 5.33717 6.3872 5.36468 6.4537C5.39219 6.5202 5.40629 6.59148 5.40617 6.66345ZM6.86711 6.66345C6.86705 6.79018 6.82304 6.91298 6.74259 7.0109C6.66215 7.10883 6.55023 7.17584 6.42592 7.20051C6.30161 7.22517 6.17259 7.20597 6.06084 7.14618C5.9491 7.08639 5.86154 6.9897 5.81309 6.87259C5.76465 6.75548 5.7583 6.6252 5.79514 6.50393C5.83198 6.38267 5.90972 6.27793 6.01513 6.20756C6.12053 6.13719 6.24708 6.10555 6.3732 6.11802C6.49932 6.13048 6.61721 6.1863 6.7068 6.27595C6.75773 6.32679 6.79811 6.3872 6.82562 6.4537C6.85313 6.5202 6.86723 6.59148 6.86711 6.66345Z" fill="#333333"/>
</g>
<defs>
<clipPath id="clip0_220_1522">
<rect width="10" height="10" rx="3" fill="white"/>
</clipPath>
</defs>
</svg>
