<svg width="10" height="10" viewBox="0 0 10 10" fill="none" xmlns="http://www.w3.org/2000/svg">
<path d="M8.01667 1.25H1.98333C1.78884 1.25 1.60231 1.32726 1.46479 1.46479C1.32726 1.60231 1.25 1.78884 1.25 1.98333V8.01667C1.25 8.21116 1.32726 8.39769 1.46479 8.53521C1.60231 8.67274 1.78884 8.75 1.98333 8.75H8.01667C8.11297 8.75 8.20833 8.73103 8.2973 8.69418C8.38627 8.65732 8.46712 8.60331 8.53521 8.53521C8.60331 8.46712 8.65732 8.38627 8.69418 8.2973C8.73103 8.20833 8.75 8.11297 8.75 8.01667V1.98333C8.75 1.88703 8.73103 1.79167 8.69418 1.7027C8.65732 1.61373 8.60331 1.53288 8.53521 1.46479C8.46712 1.39669 8.38627 1.34268 8.2973 1.30582C8.20833 1.26897 8.11297 1.25 8.01667 1.25ZM5.6 5.41667H4.6625V8.1H3.91667V5.41667H2.97917V4.80833H5.6V5.41667ZM8.01667 7.61667C7.95635 7.74492 7.85915 7.85228 7.7375 7.925C7.60951 8.00377 7.46836 8.05882 7.32083 8.0875C7.15635 8.12147 6.98878 8.13822 6.82083 8.1375C6.64898 8.13735 6.47748 8.12201 6.30833 8.09167C6.16456 8.06222 6.02472 8.01608 5.89167 7.95417V7.24167L5.86667 7.21667H5.89167V7.24583C6.01699 7.34361 6.15784 7.41967 6.30833 7.47083C6.45862 7.52805 6.61837 7.55633 6.77917 7.55417C6.86319 7.55563 6.9471 7.54724 7.02917 7.52917C7.09081 7.51474 7.14984 7.49085 7.20417 7.45833C7.24669 7.43241 7.28241 7.39669 7.30833 7.35417C7.33399 7.30573 7.34527 7.25098 7.34084 7.19635C7.33641 7.14172 7.31646 7.0895 7.28333 7.04583C7.24416 6.99092 7.19462 6.94421 7.1375 6.90833C7.06814 6.85956 6.99418 6.8177 6.91667 6.78333L6.6375 6.66667C6.41651 6.57565 6.22071 6.43273 6.06667 6.25C5.93775 6.0946 5.86964 5.89768 5.875 5.69583C5.87014 5.54249 5.90457 5.39046 5.975 5.25417C6.04221 5.13537 6.13642 5.03403 6.25 4.95833C6.37655 4.87414 6.51795 4.81475 6.66667 4.78333C6.82925 4.74591 6.99567 4.72773 7.1625 4.72917C7.31442 4.72705 7.46627 4.7368 7.61667 4.75833C7.74179 4.7779 7.86464 4.81 7.98333 4.85417V5.54167C7.92849 5.50257 7.86986 5.46907 7.80833 5.44167C7.74208 5.41315 7.67385 5.38948 7.60417 5.37083C7.53739 5.35129 7.4691 5.33735 7.4 5.32917C7.33625 5.32316 7.27208 5.32316 7.20833 5.32917C7.12982 5.32787 7.05145 5.33626 6.975 5.35417C6.91228 5.36732 6.85189 5.38979 6.79583 5.42083C6.75208 5.44661 6.71498 5.48229 6.6875 5.525C6.66256 5.5665 6.64958 5.61409 6.65 5.6625C6.64898 5.71419 6.6635 5.76499 6.69167 5.80833C6.72589 5.85566 6.76821 5.89656 6.81667 5.92917C6.87541 5.97593 6.93981 6.01513 7.00833 6.04583L7.27083 6.1625C7.39153 6.2124 7.5085 6.27088 7.62083 6.3375C7.71961 6.39156 7.80954 6.46041 7.8875 6.54167C7.96388 6.61569 8.02355 6.70519 8.0625 6.80417C8.10246 6.91792 8.1222 7.03778 8.12083 7.15833C8.11785 7.31395 8.08237 7.46723 8.01667 7.60833V7.61667Z" fill="white"/>
</svg>
